<svg id="flat" height="512" viewBox="0 0 512 512" width="512" xmlns="http://www.w3.org/2000/svg"><path d="m56 48h104v80h-104z" fill="#ffa100"/><path d="m280 24h208v128h-208z" fill="#ffc431"/><path d="m432 112a15.99993 15.99993 0 0 0 -16 16v-32a16 16 0 0 0 -32 0v-16a16 16 0 0 0 -32 0v16a16 16 0 0 0 -32 0v56h-40v56l32 64 104 32 32-88v-88a15.99993 15.99993 0 0 0 -16-16z" fill="#ffceb6"/><path d="m176 376 40-96-104-32-56 128z" fill="#4976f2"/><path d="m160 40h120v96h-120z" fill="#ffb401"/><path d="m56 48-32-16v112l32-16z" fill="#ffc431"/><path d="m248 136v64l-32 80-104-32-32-48v-87.11385a16.88614 16.88614 0 0 1 16.88615-16.88615 16.88615 16.88615 0 0 1 16.78285 15.02138l1.88656 16.97862h44.44444v8z" fill="#ffceb6"/><g fill="#ffb089"><path d="m152 160a8 8 0 0 1 -8-8v-24h16v24a8 8 0 0 1 -8 8z"/><path d="m184 160a8 8 0 0 1 -8-8v-16h16v16a8 8 0 0 1 -8 8z"/><path d="m216 160a8 8 0 0 1 -8-8v-16h16v16a8 8 0 0 1 -8 8z"/><path d="m112 248a7.99983 7.99983 0 0 1 -11.09377-2.21875l-27.56248-41.34375a7.996 7.996 0 0 1 -1.34375-4.4375v-86.53868c0-13.491 10.49771-24.96607 23.98025-25.4452a24.86262 24.86262 0 0 1 25.63987 22.12206l5.936 53.4253a61.75812 61.75812 0 0 1 24.44388 49.28076v3.15576a8 8 0 0 1 -8 8 8 8 0 0 1 -8-8v-2.05913c0-15.60221-7.23011-30.75731-20.33816-39.21945a8.00088 8.00088 0 0 1 -3.613-5.83813l-6.33106-56.97851a8.87748 8.87748 0 0 0 -9.16728-7.89858 9.09191 9.09191 0 0 0 -8.5505 9.19102v84.38042l26.2188 39.32861a7.99982 7.99982 0 0 1 -2.2188 11.09375z"/><path d="m215.99992 280a7.99993 7.99993 0 0 1 -4.45657-10.39883l28.45665-71.1417v-62.45947h16v63.99965a8.001 8.001 0 0 1 -.57227 2.97154l-29.02886 72.57216a8 8 0 0 1 -10.39895 4.45665z"/></g><path d="m312 272-32.11051 83.48733a32 32 0 0 1 -29.86706 20.51267h-226.02243v112h259.74988a96 96 0 0 0 90.67169-64.462l41.57843-119.538z" fill="#548aff"/><path d="m288 206.11133v-46.11133a8 8 0 0 0 -8-8 8 8 0 0 0 -8 8v48a7.99583 7.99583 0 0 0 .84473 3.57764l28.29973 56.59946a8.18209 8.18209 0 0 0 10.3716 4.04556 8.00053 8.00053 0 0 0 4.06158-10.95557z" fill="#ffb089"/><path d="m432.41113 104.00342a23.11823 23.11823 0 0 0 -8.41113 1.42895v-9.43237a24.02786 24.02786 0 0 0 -23.58765-23.99658 23.12845 23.12845 0 0 0 -9.24072 1.75683 24.04117 24.04117 0 0 0 -22.75928-17.75683c-11.07714-.1875-20.488 7.50439-23.44323 17.74219a23.84964 23.84964 0 0 0 -8.55677-1.74219c-13.42505-.22717-24.41235 11.11523-24.41235 24.54211v95.45447a8 8 0 0 0 16 0v-96a8.00877 8.00877 0 0 1 8.548-7.98169 8.18927 8.18927 0 0 1 7.452 8.26428v47.71741a8 8 0 0 0 16 0v-64a8.00877 8.00877 0 0 1 8.548-7.98169 8.18924 8.18924 0 0 1 7.452 8.26416v63.71753a8 8 0 0 0 16 0v-48a8.00877 8.00877 0 0 1 8.548-7.98169 8.18924 8.18924 0 0 1 7.452 8.26416v47.71753a8 8 0 0 0 16 0v-16a8.00877 8.00877 0 0 1 8.548-7.98169 8.18927 8.18927 0 0 1 7.452 8.26428v86.30774l-28.78455 79.15723a8.00017 8.00017 0 0 0 4.78455 10.25244h.00024a7.99973 7.99973 0 0 0 10.2522-4.78442l29.26611-80.48169a8.00428 8.00428 0 0 0 .48145-2.73389v-88a24.02842 24.02842 0 0 0 -23.58887-23.99658z" fill="#ffb089"/></svg>