<svg id="Слой_1" data-name="Слой 1" xmlns="http://www.w3.org/2000/svg" viewBox="0 0 511 489.7"><title>star0.5</title><path d="M114.37,500.67a27.2,27.2,0,0,1-26.46-33.22l32.87-144.81L9.29,224.87a27.18,27.18,0,0,1,15.4-47.53L172.2,164,230.52,27.47a27.15,27.15,0,0,1,50,0L338.79,164l147.49,13.39a27.19,27.19,0,0,1,15.44,47.53L390.23,322.62l32.88,144.81a27.15,27.15,0,0,1-40.41,29.34l-127.2-76L128.3,496.81A27.26,27.26,0,0,1,114.37,500.67ZM255.5,388a27.24,27.24,0,0,1,13.92,3.85l120.05,71.8L358.44,327a27.16,27.16,0,0,1,8.61-26.46L472.32,208.2,333,195.55a27.15,27.15,0,0,1-22.57-16.46l-55-128.8-55,128.82A27.07,27.07,0,0,1,178,195.51L38.66,208.15l105.27,92.33a27.1,27.1,0,0,1,8.6,26.48l-31,136.68,120-71.78A27.25,27.25,0,0,1,255.5,388ZM171.08,166.59s0,0,0,0Zm168.8-.06,0,0S339.9,166.55,339.88,166.53Z" transform="translate(0 -10.96)"/><polygon points="255.5 39.33 255.5 377.05 111 473.04 136 305.04 16 195.04 171.05 167.04 178 166.04 241 20.04 255.5 39.33"/></svg>