<svg id="Слой_1" data-name="Слой 1" xmlns="http://www.w3.org/2000/svg" viewBox="0 0 267.22 243.54"><defs><style>.cls-1{fill:#5db945;}.cls-2{fill:#211f20;}</style></defs><title>privat</title><path class="cls-1" d="M616.11,610.12H486.25c0-1.25,0-2.5,0-3.75-.46-13.92-.07-27.93-1.59-41.76-2.66-24.27-12.39-45.67-34.39-61a95,95,0,0,0-45.61-16.41c-16.41-1.58-33-1.53-49.53-2.17-1.94-.08-3.89,0-6.12,0V366.59H616.11Zm-55.06-193H404.37v18.9q118.78,15.24,135.68,123.57h21Z" transform="translate(-348.89 -366.59)"/><path class="cls-2" d="M453.13,610.13H348.89V515.2H453.13Z" transform="translate(-348.89 -366.59)"/></svg>